<?xml version="1.0" encoding="utf-8"?>
<!-- Generator: Adobe Illustrator 15.0.2, SVG Export Plug-In . SVG Version: 6.00 Build 0)  -->
<!DOCTYPE svg PUBLIC "-//W3C//DTD SVG 1.1//EN" "http://www.w3.org/Graphics/SVG/1.1/DTD/svg11.dtd">
<svg version="1.1" id="Layer_1" xmlns="http://www.w3.org/2000/svg" xmlns:xlink="http://www.w3.org/1999/xlink" x="0px" y="0px"
	 width="512.001px" height="669.267px" viewBox="-0.333 0 512.001 669.267" enable-background="new -0.333 0 512.001 669.267"
	 xml:space="preserve">
<path d="M295.505,629.446V135.957l148.193,148.206c15.555,15.559,40.753,15.559,56.308,0c15.555-15.538,15.546-40.767,0-56.304
	L283.83,11.662C276.372,4.204,266.236,0,255.68,0c-10.568,0-20.705,4.204-28.172,11.662L11.333,227.859
	c-7.777,7.777-11.666,17.965-11.666,28.158c0,10.192,3.88,20.385,11.657,28.158c15.563,15.555,40.762,15.555,56.317,0
	l148.201-148.219v493.489c0,21.993,17.837,39.82,39.82,39.82C277.669,669.267,295.505,651.439,295.505,629.446z"/>
</svg>
