<?xml version="1.0" encoding="utf-8"?>
<!-- Generator: Adobe Illustrator 18.1.0, SVG Export Plug-In . SVG Version: 6.00 Build 0)  -->
<svg version="1.1" id="Слой_1" xmlns="http://www.w3.org/2000/svg" xmlns:xlink="http://www.w3.org/1999/xlink" x="0px" y="0px"
	 viewBox="0 0 180 32" enable-background="new 0 0 180 32" xml:space="preserve">
<path fill-rule="evenodd" clip-rule="evenodd" fill="#6B6C6F" d="M16,10.5v13.2c0,4.2-2.2,6.3-6.6,6.3c-4.4,0-6.7-2.1-6.7-6.3V9.4H0
	v13.9c0,2.9,0.7,5,2.2,6.5C3.7,31.2,6.1,32,9.4,32c6.2,0,9.3-2.9,9.3-8.7V9.4H17C16.3,9.4,16,9.8,16,10.5z"/>
<path fill-rule="evenodd" clip-rule="evenodd" fill="#6B6C6F" d="M40.3,30.7c0,0.7,0.4,1.1,1.1,1.1H43V17.9c0-5.9-3.1-8.8-9.3-8.8
	c-3.3,0-5.7,0.8-7.2,2.3c-1.5,1.5-2.2,3.7-2.2,6.6v13.8H27V17.5c0-4.2,2.2-6.3,6.7-6.3c4.4,0,6.6,2.1,6.6,6.3V30.7z"/>
<path fill-rule="evenodd" clip-rule="evenodd" fill="#6B6C6F" d="M51.3,31.7V10.5c0-0.7-0.3-1.1-1-1.1h-1.8v22.3H51.3z"/>
<path fill-rule="evenodd" clip-rule="evenodd" fill="#6B6C6F" d="M56,24.5c0.1,2.6,1,4.5,2.6,5.7c1.6,1.2,3.7,1.8,6.1,1.8
	c6.4,0.3,9.5-2,9.4-6.7c-0.1-2.5-1.7-4.2-4.7-5.1c-3.5-1-5.8-1.7-6.9-2.1c-1.9-0.5-2.9-1.6-2.8-3.3c0.2-2.5,1.9-3.7,5.1-3.7
	c3.1,0,5.1,1.2,5.9,3.5c0.2,0.5,0.6,0.7,1.4,0.7h1.8c-0.3-1.1-0.6-2-1-2.6c-1.2-2.6-4-3.8-8.4-3.7c-4.9,0.1-7.4,2.1-7.5,6
	c0.1,2.6,1.6,4.4,4.7,5.5c1,0.4,2.6,0.9,4.7,1.4c3.7,0.9,5.4,2.3,5.2,4.1c-0.2,2.6-2.4,3.9-6.7,3.7c-4.2-0.2-6.3-1.9-6.3-5.4H56z"/>
<path fill-rule="evenodd" clip-rule="evenodd" fill="#6B6C6F" d="M93.6,17.4v14.3h2.7V17.3c0-1.7,0.5-3.1,1.5-4.3
	c1-1.2,2.5-1.8,4.5-1.8c2.1,0,3.6,0.6,4.5,1.8c1,1.2,1.5,2.7,1.5,4.4v13.3c0,0.7,0.3,1.1,1,1.1h1.8V17.9c0-3-0.8-5.2-2.4-6.6
	c-1.6-1.5-3.7-2.2-6.4-2.2c-3.6,0-6,1.2-7.3,3.5c-1.5-2.3-3.9-3.5-7.4-3.5c-2.8,0-4.9,0.7-6.5,2.2c-1.5,1.5-2.3,3.7-2.3,6.6v13.8
	h2.8V17.3c0-1.7,0.5-3.1,1.4-4.3c0.9-1.2,2.5-1.8,4.6-1.8c2,0,3.5,0.6,4.5,1.8C93.1,14.2,93.6,15.7,93.6,17.4z"/>
<path fill-rule="evenodd" clip-rule="evenodd" fill="#F95200" d="M114.4,20.3c0,6.3,5.1,11.5,11.3,11.5c6.2,0,11.3-5.1,11.3-11.5
	c0-5.1-3.3-9.4-7.8-10.9c-0.4-0.1-0.8,0.2-0.8,0.6v4.1c2.3,1,4,3.4,4,6.2c0,3.7-3,6.8-6.6,6.8c-3.7,0-6.6-3-6.6-6.8
	c0-2.8,1.6-5.1,4-6.2V9.9c0-0.5-0.4-0.8-0.8-0.6C117.6,10.8,114.4,15.1,114.4,20.3z"/>
<path fill-rule="evenodd" clip-rule="evenodd" fill="#6B6C6F" d="M140.5,31.7h2.8v-7.3c0-1,0.3-1.7,0.8-2.1c0.5-0.4,1.1-0.5,1.6-0.5
	c1,0,1.9,0.7,2.8,2l5.2,8h3.7l-8.5-13.1l8.2-9.2h-3.6l-10.1,11.5V4c0-0.7-0.3-1-1-1h-1.8V31.7z"/>
<path fill-rule="evenodd" clip-rule="evenodd" fill="#6B6C6F" d="M162.9,21.2H180c0.1-3.2-0.6-6.1-2.1-8.5c-1.5-2.4-4.1-3.6-7.8-3.6
	c-3.6,0-6.1,1.1-7.6,3.3c-1.5,2.2-2.3,4.9-2.3,8.2c0,3.4,0.8,6.1,2.3,8.2c1.5,2.1,4.1,3.2,7.6,3.2c2.6,0,4.6-0.6,6.1-1.7
	c1.6-1.2,2.7-2.9,3.3-5.4h-1.4c-0.8,0.1-1.2,0.2-1.4,0.6c-1.5,3-3.7,4.5-6.7,4.5c-2.7,0-4.5-0.9-5.5-2.6
	C163.5,25.5,162.9,23.5,162.9,21.2z M162.9,19c0.2-2.1,0.8-4,1.8-5.6c1.1-1.6,2.8-2.3,5.3-2.3c2.4,0,4.2,0.8,5.3,2.3
	c1.1,1.6,1.7,3.4,1.9,5.6H162.9z"/>
<rect x="124" fill-rule="evenodd" clip-rule="evenodd" fill="#EA6525" width="3.3" height="6.7"/>
<rect x="124" y="7.1" fill-rule="evenodd" clip-rule="evenodd" fill="#78787A" width="3.3" height="13.5"/>
<rect x="124" y="21" fill-rule="evenodd" clip-rule="evenodd" fill="#EA6525" width="3.3" height="0.8"/>
<rect x="124" y="22.2" fill-rule="evenodd" clip-rule="evenodd" fill="#EA6525" width="3.3" height="0.8"/>
<rect x="125.4" y="8.3" fill-rule="evenodd" clip-rule="evenodd" fill="#FFFFFF" width="0.6" height="2.2"/>
<rect x="124.6" y="17.8" fill-rule="evenodd" clip-rule="evenodd" fill="#FFFFFF" width="2.1" height="0.6"/>
<rect x="125.4" y="17" fill-rule="evenodd" clip-rule="evenodd" fill="#FFFFFF" width="0.6" height="2.2"/>
</svg>
