<?xml version="1.0" encoding="utf-8"?>
<!-- Generator: Adobe Illustrator 18.1.0, SVG Export Plug-In . SVG Version: 6.00 Build 0)  -->
<svg version="1.1" id="Слой_1" xmlns="http://www.w3.org/2000/svg" xmlns:xlink="http://www.w3.org/1999/xlink" x="0px" y="0px"
	 viewBox="0 0 73 63" enable-background="new 0 0 73 63" xml:space="preserve">
<path fill-rule="evenodd" clip-rule="evenodd" fill="none" stroke="#ffffff" stroke-width="3" stroke-linecap="round" stroke-linejoin="round" stroke-miterlimit="10" d="
	M41.5,6.3H30.7L2.3,34.7c-1.1,1.1-1.1,2.9,0,4.1l20.9,20.9c1.1,1.1,2.9,1.1,4,0l1.3-1.4"/>
<path fill-rule="evenodd" clip-rule="evenodd" fill="none" stroke="#ffffff" stroke-width="3" stroke-linecap="round" stroke-linejoin="round" stroke-miterlimit="10" d="
	M67.8,29.9c0.7-0.7,1.4-2.2,1.5-3.3l2.1-20.3c0.3-2.9-1.9-5.1-4.8-4.8L46.1,3.4c-1,0.1-2.5,0.8-3.3,1.5l-31,30.9
	c-0.4,0.4-0.7,1-0.7,1.5c0,0.5,0,0.8,0.4,1.2L34,60.9c0.8,0.7,2,0.8,2.7,0L67.8,29.9z"/>
<path fill-rule="evenodd" clip-rule="evenodd" fill="#ffffff" d="M54.8,11.2c1.9-1.9,4.9-1.8,6.8,0c1.9,1.9,1.9,4.9,0,6.8
	c-1.9,1.9-4.9,1.8-6.8,0C52.9,16.1,52.9,13,54.8,11.2z"/>
<line fill-rule="evenodd" clip-rule="evenodd" fill="#FFFFFF" stroke="#ffffff" stroke-width="3" stroke-linecap="round" stroke-linejoin="round" stroke-miterlimit="10" x1="44.2" y1="19.9" x2="25.8" y2="38.3"/>
<line fill-rule="evenodd" clip-rule="evenodd" fill="#FFFFFF" stroke="#ffffff" stroke-width="3" stroke-linecap="round" stroke-linejoin="round" stroke-miterlimit="10" x1="52.8" y1="28.6" x2="34.4" y2="46.9"/>
</svg>
