<?xml version="1.0" encoding="utf-8"?>
<!-- Generator: Adobe Illustrator 18.1.0, SVG Export Plug-In . SVG Version: 6.00 Build 0)  -->
<svg version="1.1" id="Слой_1" xmlns="http://www.w3.org/2000/svg" xmlns:xlink="http://www.w3.org/1999/xlink" x="0px" y="0px"
	 viewBox="0 0 21 80" enable-background="new 0 0 21 80" xml:space="preserve">
<g>
	
		<path fill-rule="evenodd" clip-rule="evenodd" fill="none" stroke="#f37321" stroke-width="2" stroke-linecap="round" stroke-linejoin="round" stroke-miterlimit="10" d="
		M2.2,2.2v54.2c0,0.3-0.3,0.6-0.6,0.6C1.3,57,1,57.3,1,57.6v2.5c0,0.3,0.3,0.6,0.6,0.6h0.3c0.3,0,0.6,0.3,0.6,0.6v9.3
		c0,0.3-0.3,0.6-0.6,0.6c-0.3,0-0.6,0.3-0.6,0.6v5c0,0,0.3,2.1,9.2,2.2c8.9-0.1,9.2-2.2,9.2-2.2v-5c0-0.3-0.3-0.6-0.6-0.6
		c-0.3,0-0.6-0.3-0.6-0.6v-9.3c0-0.3,0.3-0.6,0.6-0.6h0.3c0.3,0,0.6-0.3,0.6-0.6v-2.5c0-0.3-0.3-0.6-0.6-0.6c-0.3,0-0.6-0.3-0.6-0.6
		V2.2c0,0,0-1.2-8.3-1.2C2.2,1,2.2,2.2,2.2,2.2z"/>
	
		<path fill-rule="evenodd" clip-rule="evenodd" fill="none" stroke="#f37321" stroke-width="2" stroke-linecap="round" stroke-linejoin="round" stroke-miterlimit="10" d="
		M2.2,14.3v1.7c1-0.4,3.2-0.8,8.4-0.8c5.1,0,7.4,0.4,8.3,0.8v-1.7c0,0,0-1.2-8.3-1.2C2.2,13.1,2.2,14.3,2.2,14.3z"/>
	
		<path fill-rule="evenodd" clip-rule="evenodd" fill="none" stroke="#f37321" stroke-width="2" stroke-linecap="round" stroke-linejoin="round" stroke-miterlimit="10" d="
		M2.2,48.4v1.7c1-0.4,3.2-0.8,8.4-0.8c5.1,0,7.4,0.4,8.3,0.8v-1.7c0,0,0-1.2-8.3-1.2C2.2,47.1,2.2,48.4,2.2,48.4z"/>
	
		<path fill-rule="evenodd" clip-rule="evenodd" fill="none" stroke="#f37321" stroke-width="2" stroke-linecap="round" stroke-linejoin="round" stroke-miterlimit="10" d="
		M6.2,33.8c0-2.6,1.9-4.6,4.3-4.6c2.4,0,4.3,2.1,4.3,4.6c0,2.6-1.9,4.6-4.3,4.6C8.1,38.4,6.2,36.4,6.2,33.8z"/>
	
		<ellipse fill-rule="evenodd" clip-rule="evenodd" fill="none" stroke="#f37321" stroke-width="2" stroke-linecap="round" stroke-linejoin="round" stroke-miterlimit="10" cx="10.5" cy="23" rx="1.4" ry="1.6"/>
	
		<path fill-rule="evenodd" clip-rule="evenodd" fill="none" stroke="#f37321" stroke-width="2" stroke-linecap="round" stroke-linejoin="round" stroke-miterlimit="10" d="
		M10.3,61.7H11c0.5,0,1,0.5,1,1.1v7.2c0,0.6-0.4,1.1-1,1.1h-0.7c-0.5,0-1-0.5-1-1.1v-7.2C9.3,62.1,9.8,61.7,10.3,61.7z"/>
</g>
</svg>
