<?xml version="1.0" encoding="utf-8"?>
<!-- Generator: Adobe Illustrator 18.1.0, SVG Export Plug-In . SVG Version: 6.00 Build 0)  -->
<svg version="1.1" id="Слой_1" xmlns="http://www.w3.org/2000/svg" xmlns:xlink="http://www.w3.org/1999/xlink" x="0px" y="0px"
	 viewBox="0 0 22 80" enable-background="new 0 0 22 80" xml:space="preserve">
<g>
	
		<path fill-rule="evenodd" clip-rule="evenodd" fill="none" stroke="#f37321" stroke-width="2" stroke-linecap="round" stroke-linejoin="round" stroke-miterlimit="10" d="
		M2.7,25.8c-0.9,0-1.7,0.8-1.7,1.8v8.5c0,0.3,1.1,0.5,1.4,0.5c0.3,0,0.5,0.2,0.5,0.5v19.2c0,0.3-0.2,0.5-0.5,0.5
		C2.1,57,1,57.2,1,57.5v13.6c0,1,0.7,1.8,1.7,1.8h16.7c0.9,0,1.7-0.8,1.7-1.8V57.5c0-0.3-1.1-0.5-1.4-0.5c-0.3,0-0.5-0.2-0.5-0.5
		V37.2c0-0.3,0.2-0.5,0.5-0.5c0.3,0,1.4-0.2,1.4-0.5v-8.5c0-1-0.7-1.8-1.7-1.8H2.7z"/>
	
		<line fill-rule="evenodd" clip-rule="evenodd" fill="none" stroke="#f37321" stroke-width="2" stroke-linecap="round" stroke-linejoin="round" stroke-miterlimit="10" x1="7.7" y1="41.3" x2="14.7" y2="41.3"/>
	
		<line fill-rule="evenodd" clip-rule="evenodd" fill="none" stroke="#f37321" stroke-width="2" stroke-linecap="round" stroke-linejoin="round" stroke-miterlimit="10" x1="7.7" y1="44.7" x2="14.7" y2="44.7"/>
	
		<line fill-rule="evenodd" clip-rule="evenodd" fill="none" stroke="#f37321" stroke-width="2" stroke-linecap="round" stroke-linejoin="round" stroke-miterlimit="10" x1="7.7" y1="48.1" x2="14.7" y2="48.1"/>
	
		<line fill-rule="evenodd" clip-rule="evenodd" fill="none" stroke="#f37321" stroke-width="2" stroke-linecap="round" stroke-linejoin="round" stroke-miterlimit="10" x1="7.7" y1="51.6" x2="14.7" y2="51.6"/>
	
		<line fill-rule="evenodd" clip-rule="evenodd" fill="none" stroke="#f37321" stroke-width="2" stroke-linecap="round" stroke-linejoin="round" stroke-miterlimit="10" x1="7.7" y1="55" x2="14.7" y2="55"/>
	
		<rect x="1" y="30.1" fill-rule="evenodd" clip-rule="evenodd" fill="none" stroke="#f37321" stroke-width="2" stroke-linecap="round" stroke-linejoin="round" stroke-miterlimit="10" width="20" height="2.5"/>
	
		<rect x="1" y="63.9" fill-rule="evenodd" clip-rule="evenodd" fill="none" stroke="#f37321" stroke-width="2" stroke-linecap="round" stroke-linejoin="round" stroke-miterlimit="10" width="20" height="2.5"/>
	
		<path fill-rule="evenodd" clip-rule="evenodd" fill="none" stroke="#f37321" stroke-width="2" stroke-linecap="round" stroke-linejoin="round" stroke-miterlimit="10" d="
		M6,18.6c0,1.5,0.5,2.8,1.4,3.8h7.1c0.9-1,1.4-2.3,1.4-3.8c0-1.8-0.8-3.1-2-3.9v-2.2c-0.8-1.2-1.3-3-1.3-5.1c0-2,0.5-3.8,1.2-4.9
		C13.6,1.6,12.4,1,11,1S8.4,1.6,8.1,2.4c0.8,1.2,1.2,2.9,1.2,4.9c0,2.1-0.5,3.9-1.3,5.1v2.2C6.8,15.5,6,16.8,6,18.6z"/>
	
		<rect x="8.9" y="75.6" fill-rule="evenodd" clip-rule="evenodd" fill="none" stroke="#f37321" stroke-width="2" stroke-linecap="round" stroke-linejoin="round" stroke-miterlimit="10" width="5.2" height="3.4"/>
</g>
</svg>
