<?xml version="1.0" encoding="utf-8"?>
<!-- Generator: Adobe Illustrator 18.1.0, SVG Export Plug-In . SVG Version: 6.00 Build 0)  -->
<svg version="1.1" id="Слой_1" xmlns="http://www.w3.org/2000/svg" xmlns:xlink="http://www.w3.org/1999/xlink" x="0px" y="0px"
	 viewBox="0 0 43 69" enable-background="new 0 0 43 69" xml:space="preserve">
<g>
	
		<path fill-rule="evenodd" clip-rule="evenodd" fill="none" stroke="#666666" stroke-width="3" stroke-linecap="round" stroke-linejoin="round" stroke-miterlimit="10" d="
		M1.5,30.3v0.8h0C1.5,30.8,1.5,30.6,1.5,30.3z M1.5,30.3c0,0.3,0,0.5,0,0.8c0.4,11,9.2,19.8,20,19.8c10.8,0,19.6-8.8,20-19.8
		c0-0.2,0-0.5,0-0.8V18.2h-40V30.3z M41.5,31.1L41.5,31.1l0-0.8C41.5,30.6,41.5,30.8,41.5,31.1z"/>
	
		<line fill-rule="evenodd" clip-rule="evenodd" fill="none" stroke="#666666" stroke-width="3" stroke-linecap="round" stroke-linejoin="round" stroke-miterlimit="10" x1="21.5" y1="53.1" x2="21.5" y2="67.5"/>
	
		<line fill-rule="evenodd" clip-rule="evenodd" fill="none" stroke="#666666" stroke-width="3" stroke-linecap="round" stroke-linejoin="round" stroke-miterlimit="10" x1="13.9" y1="40.2" x2="29.9" y2="40.2"/>
	
		<line fill-rule="evenodd" clip-rule="evenodd" fill="none" stroke="#666666" stroke-width="3" stroke-linecap="round" stroke-linejoin="round" stroke-miterlimit="10" x1="11.5" y1="33.5" x2="32.3" y2="33.5"/>
	
		<line fill-rule="evenodd" clip-rule="evenodd" fill="none" stroke="#666666" stroke-width="3" stroke-linecap="round" stroke-linejoin="round" stroke-miterlimit="10" x1="9.1" y1="26.8" x2="34.7" y2="26.8"/>
	<g>
		<g>
			
				<line fill-rule="evenodd" clip-rule="evenodd" fill="none" stroke="#666666" stroke-width="3" stroke-linecap="round" stroke-linejoin="round" stroke-miterlimit="10" x1="32.7" y1="1.5" x2="32.7" y2="15.9"/>
			
				<line fill-rule="evenodd" clip-rule="evenodd" fill="none" stroke="#666666" stroke-width="3" stroke-linecap="round" stroke-linejoin="round" stroke-miterlimit="10" x1="10.3" y1="1.5" x2="10.3" y2="15.9"/>
		</g>
	</g>
</g>
</svg>
